HIERARCHY
ROOT Hips
{
 OFFSET 0.000000 0.000000 0.000000
 CHANNELS 6 Xposition Yposition Zposition Yrotation Xrotation Zrotation
 JOINT Chest
 {
  OFFSET 0.000000 9.588913 -0.003946
  CHANNELS 3 Yrotation Xrotation Zrotation
  JOINT Chest2
  {
   OFFSET 0.000000 9.541882 0.008053
   CHANNELS 3 Yrotation Xrotation Zrotation
   JOINT Chest3
   {
    OFFSET 0.000000 9.501360 0.000000
    CHANNELS 3 Yrotation Xrotation Zrotation
    JOINT Chest4
    {
     OFFSET 0.000000 9.491660 0.000000
     CHANNELS 3 Yrotation Xrotation Zrotation
     JOINT Neck
     {
      OFFSET 0.000000 14.331917 0.000000
      CHANNELS 3 Yrotation Xrotation Zrotation
      JOINT Head
      {
       OFFSET 0.000000 8.884799 0.017034
       CHANNELS 3 Yrotation Xrotation Zrotation
       End Site
       {
        OFFSET 0.000000 16.896195 0.008993
       }
      }
     }
     JOINT RightCollar
     {
      OFFSET -2.923010 9.499495 0.000000
      CHANNELS 3 Yrotation Xrotation Zrotation
      JOINT RightShoulder
      {
       OFFSET -13.795216 0.000000 0.000000
       CHANNELS 3 Yrotation Xrotation Zrotation
       JOINT RightElbow
       {
        OFFSET -30.272209 0.000000 0.000000
        CHANNELS 3 Yrotation Xrotation Zrotation
        JOINT RightWrist
        {
         OFFSET -24.478199 0.000000 0.000000
         CHANNELS 3 Yrotation Xrotation Zrotation
         End Site
         {
          OFFSET -18.090752 0.000000 0.000000
         }
        }
       }
      }
     }
     JOINT LeftCollar
     {
      OFFSET 2.923010 9.499495 0.000000
      CHANNELS 3 Yrotation Xrotation Zrotation
      JOINT LeftShoulder
      {
       OFFSET 13.795216 0.000000 0.000000
       CHANNELS 3 Yrotation Xrotation Zrotation
       JOINT LeftElbow
       {
        OFFSET 30.272209 0.000000 0.000000
        CHANNELS 3 Yrotation Xrotation Zrotation
        JOINT LeftWrist
        {
         OFFSET 24.478199 0.000000 0.000000
         CHANNELS 3 Yrotation Xrotation Zrotation
         End Site
         {
          OFFSET 18.090752 0.000000 0.000000
         }
        }
       }
      }
     }
    }
   }
  }
 }
 JOINT RightHip
 {
  OFFSET -7.826875 0.019532 0.001973
  CHANNELS 3 Yrotation Xrotation Zrotation
  JOINT RightKnee
  {
   OFFSET 0.000000 -40.546152 -0.001885
   CHANNELS 3 Yrotation Xrotation Zrotation
   JOINT RightAnkle
   {
    OFFSET 0.000000 -39.417092 -0.003189
    CHANNELS 3 Yrotation Xrotation Zrotation
    JOINT RightToe
    {
     OFFSET 0.000000 -7.579396 17.243563
     CHANNELS 3 Yrotation Xrotation Zrotation
     End Site
     {
      OFFSET 0.000000 -1.500329 6.694466
     }
    }
   }
  }
 }
 JOINT LeftHip
 {
  OFFSET 7.826875 0.019532 0.001973
  CHANNELS 3 Yrotation Xrotation Zrotation
  JOINT LeftKnee
  {
   OFFSET 0.000000 -40.546152 -0.001885
   CHANNELS 3 Yrotation Xrotation Zrotation
   JOINT LeftAnkle
   {
    OFFSET 0.000000 -39.417092 -0.003189
    CHANNELS 3 Yrotation Xrotation Zrotation
    JOINT LeftToe
    {
     OFFSET 0.000000 -7.579396 17.243563
     CHANNELS 3 Yrotation Xrotation Zrotation
     End Site
     {
      OFFSET 0.000000 -1.500329 6.694466
     }
    }
   }
  }
 }
}
MOTION
Frames: 17
Frame Time: 0.008333
0.000000 87.345680 0.000000 0.000000 -5.767889 0.000000 0.000000 11.653876 0.000000 0.000000 -5.885988 0.000000 0.000000 -0.000000 0.000000 0.000000 -0.000000 0.000000 0.000000 12.528808 0.000000 0.000000 0.711711 0.000000 0.000000 -0.000000 0.000000 0.000000 -0.000000 0.000000 2.309063 -0.000000 0.000000 -2.309063 -0.000000 -0.000000 0.000000 -0.000000 0.000000 0.000000 0.000000 0.000000 -2.309063 0.000000 0.000000 2.309063 -0.000000 0.000000 0.000000 8.520374 0.000000 0.000000 1.905768 0.000000 -0.000000 -4.658254 0.000000 0.000000 -0.000000 0.000000 0.000000 8.520374 0.000000 0.000000 1.905768 0.000000 -0.000000 -4.658254 0.000000 0.000000 -0.000000 0.000000
7.669553 88.945447 8.579010 -55.534728 -7.146220 0.636303 7.565238 3.918214 0.682024 4.350612 2.194303 0.436415 5.441863 2.737203 0.571579 4.350616 2.194306 0.436415 11.512793 16.216642 -1.808232 13.383884 -8.049246 -4.777359 -12.008204 0.712553 -0.777958 2.507881 -3.898394 89.586156 2.973606 -4.717731 1.908298 3.467180 -17.739570 -4.057317 -14.637017 -0.195095 -0.240988 4.717165 -3.158601 -90.553957 -0.455455 1.470763 -2.843320 -2.280278 -6.721808 6.062138 6.257348 7.780532 -6.501174 17.409522 7.943887 0.652462 -3.853554 -7.963595 6.136485 -0.037929 -0.336637 -0.360359 10.086605 7.964994 2.653878 13.243448 4.576463 -1.069868 -2.245981 -6.915732 1.204054 0.085700 0.331079 0.109048
7.685323 88.938155 8.596103 -55.562440 -7.212915 0.626270 7.521241 3.984927 0.666345 4.329531 2.231461 0.423940 5.415510 2.783819 0.556303 4.329535 2.231463 0.423940 11.161257 16.113660 -1.859690 12.969559 -8.196593 -4.743549 -12.024985 0.742430 -0.778519 2.466791 -4.006931 89.638113 3.108898 -4.784863 1.887951 3.531323 -17.794894 -4.152725 -14.722714 -0.221486 -0.218700 4.696072 -3.056039 -90.505481 -0.473884 1.452394 -2.863339 -2.415882 -6.781853 6.139392 6.010168 7.392872 -6.575276 17.632285 8.712892 0.910874 -3.739713 -8.215202 6.209168 -0.054779 -0.380935 -0.401050 10.144772 7.962146 2.711372 13.302733 4.723277 -1.109542 -2.304901 -6.991349 1.217829 0.089148 0.328057 0.111302
7.701656 88.930647 8.615636 -55.589035 -7.291147 0.607799 7.477888 4.054927 0.657723 4.308782 2.271019 0.412574 5.389581 2.833420 0.542440 4.308786 2.271022 0.412574 10.822737 16.003051 -1.909268 12.572680 -8.349954 -4.711023 -12.046951 0.773943 -0.771267 2.422585 -4.114753 89.687952 3.255592 -4.868935 1.870121 3.610218 -17.864055 -4.254749 -14.819266 -0.252247 -0.206725 4.657097 -2.948560 -90.433748 -0.492037 1.432406 -2.883065 -2.534817 -6.837801 6.194394 5.804704 7.022051 -6.645739 17.841431 9.472720 1.180573 -3.634998 -8.442091 6.297222 -0.071336 -0.424454 -0.446125 10.210271 7.965464 2.784107 13.353710 4.878370 -1.148021 -2.380896 -7.070621 1.231087 0.092610 0.325577 0.112292
7.718299 88.923523 8.636377 -55.613821 -7.372897 0.583069 7.435505 4.124899 0.655011 4.287631 2.311095 0.401515 5.363151 2.883664 0.528960 4.287634 2.311097 0.401516 10.497494 15.889034 -1.955317 12.192789 -8.504712 -4.677935 -12.069836 0.812446 -0.754938 2.371638 -4.223328 89.733260 3.414034 -4.977745 1.857994 3.712185 -17.945719 -4.366873 -14.925984 -0.285649 -0.208246 4.601156 -2.842399 -90.334924 -0.503627 1.409142 -2.902036 -2.635127 -6.883593 6.224326 5.653708 6.670634 -6.713133 18.048739 10.208598 1.456619 -3.562976 -8.641450 6.415151 -0.087674 -0.463934 -0.502239 10.276450 7.966528 2.852839 13.385892 5.035990 -1.178633 -2.411476 -7.148651 1.249713 0.099480 0.322003 0.109291
7.734996 88.917366 8.657120 -55.637200 -7.452538 0.557094 7.394954 4.191841 0.652212 4.266318 2.350051 0.390981 5.336518 2.932502 0.516116 4.266322 2.350053 0.390981 10.185209 15.776453 -1.996223 11.828740 -8.655655 -4.642336 -12.090967 0.858820 -0.730487 2.306119 -4.330301 89.773623 3.580211 -5.117415 1.852996 3.842756 -18.040492 -4.489639 -15.039866 -0.321667 -0.226128 4.531283 -2.739953 -90.211464 -0.504431 1.385566 -2.914182 -2.716459 -6.911521 6.234866 5.563395 6.340065 -6.783584 18.259681 10.911700 1.741089 -3.543314 -8.818900 6.572025 -0.100784 -0.495382 -0.572909 10.327205 7.964073 2.909044 13.387566 5.188587 -1.197479 -2.387876 -7.218245 1.273377 0.106346 0.314855 0.099283
7.750776 88.912744 8.676430 -55.659889 -7.530390 0.534138 7.357403 4.254268 0.643957 4.245757 2.387538 0.381539 5.310825 2.979488 0.504622 4.245760 2.387539 0.381540 9.886789 15.668678 -2.030464 11.480944 -8.799147 -4.602745 -12.111724 0.910192 -0.698705 2.223065 -4.433049 89.810287 3.746569 -5.291771 1.855533 4.003422 -18.152438 -4.622137 -15.160065 -0.358626 -0.260883 4.451157 -2.642760 -90.067001 -0.492032 1.368399 -2.912288 -2.779308 -6.920482 6.231915 5.536190 6.035347 -6.863893 18.471487 11.577339 2.036522 -3.581883 -8.984320 6.768049 -0.106810 -0.516893 -0.653909 10.344955 7.965021 2.951906 13.353988 5.327249 -1.205337 -2.320721 -7.271456 1.297707 0.109077 0.302497 0.082677
7.759765 88.913979 8.731596 -55.549636 -7.767526 0.678160 7.179997 4.488829 0.469808 4.227425 2.423475 0.373964 5.287927 3.024513 0.495452 4.227427 2.423476 0.373964 9.601816 15.568168 -2.059293 11.149022 -8.932595 -4.560474 -12.137908 0.966057 -0.662082 2.125601 -4.530636 89.847570 3.903971 -5.506411 1.861267 4.193033 -18.270442 -4.760027 -15.294272 -0.391871 -0.311037 4.366035 -2.554832 -89.902373 -0.462162 1.366118 -2.894773 -2.822978 -6.915013 6.218434 5.411755 6.002989 -7.182768 18.673550 12.163851 2.335417 -3.561446 -9.264643 7.076057 -0.216584 -0.466075 -0.788953 10.168590 8.171206 2.809016 13.306568 5.435847 -1.198222 -2.234098 -7.273171 1.330953 0.116313 0.251890 0.066152
7.766123 88.914630 8.745692 -55.547975 -7.883155 0.676269 7.128178 4.571692 0.438148 4.211115 2.458178 0.369241 5.267573 3.067959 0.489844 4.211117 2.458179 0.369241 9.330064 15.477231 -2.086271 10.833455 -9.053486 -4.519467 -12.169903 1.025352 -0.627491 2.016765 -4.623108 89.891270 4.044419 -5.758784 1.866323 4.409835 -18.389091 -4.899035 -15.441570 -0.417739 -0.374999 4.279952 -2.480041 -89.720838 -0.411376 1.380058 -2.859459 -2.845984 -6.898177 6.196516 5.470541 5.812996 -7.315166 18.825548 12.744791 2.641666 -3.652941 -9.457198 7.345864 -0.207888 -0.457582 -0.873082 10.088030 8.235223 2.813922 13.276419 5.523849 -1.176912 -2.146934 -7.277347 1.340697 0.115686 0.226887 0.047267
7.764989 88.917833 8.744384 -55.562301 -7.994800 0.647394 7.094011 4.634913 0.433321 4.195598 2.492190 0.367838 5.248230 3.110502 0.488380 4.195599 2.492191 0.367838 9.072573 15.397628 -2.113685 10.535917 -9.159886 -4.482568 -12.201115 1.083942 -0.602738 1.900932 -4.709625 89.946699 4.164728 -6.039842 1.871119 4.651471 -18.509529 -5.039652 -15.588680 -0.435707 -0.448275 4.200760 -2.423127 -89.531287 -0.335705 1.413883 -2.802763 -2.847252 -6.872045 6.167234 5.582088 5.644475 -7.427561 18.922926 13.280294 2.942670 -3.764907 -9.653043 7.625364 -0.168226 -0.438594 -0.933860 10.012409 8.299698 2.848982 13.278370 5.589447 -1.143393 -2.086083 -7.270475 1.334489 0.113948 0.208072 0.031746
7.755585 88.923737 8.723660 -55.597540 -8.095843 0.588196 7.078544 4.675736 0.459301 4.180562 2.524677 0.369134 5.229505 3.151108 0.490274 4.180563 2.524677 0.369135 8.830238 15.331233 -2.142491 10.257522 -9.249830 -4.451067 -12.228882 1.139884 -0.591996 1.784582 -4.789194 90.017841 4.265023 -6.342697 1.875517 4.911530 -18.628626 -5.183144 -15.726026 -0.446283 -0.523747 4.130178 -2.386229 -89.342643 -0.233380 1.468098 -2.722096 -2.827041 -6.833587 6.129078 5.730322 5.492325 -7.514580 18.962230 13.759977 3.223623 -3.891132 -9.857836 7.893141 -0.101038 -0.400015 -0.951730 9.964830 8.357159 2.924286 13.305213 5.631751 -1.106609 -2.048086 -7.252566 1.314761 0.110712 0.196286 0.019970
7.738141 88.932420 8.681661 -55.653907 -8.179496 0.502460 7.083351 4.692402 0.513830 4.166889 2.554240 0.371560 5.212487 3.188044 0.493553 4.166890 2.554240 0.371560 8.604301 15.280089 -2.171915 9.999326 -9.321208 -4.424413 -12.259579 1.193739 -0.594627 1.673716 -4.862349 90.105681 4.345107 -6.659656 1.880127 5.179046 -18.746272 -5.328259 -15.853189 -0.450332 -0.593101 4.061227 -2.365741 -89.161800 -0.107269 1.536566 -2.615664 -2.783208 -6.782048 6.084512 5.894680 5.353813 -7.576398 18.948348 14.170333 3.465770 -4.028148 -10.076517 8.120746 -0.018082 -0.331070 -0.904969 9.953703 8.403916 3.037700 13.339747 5.643648 -1.072387 -2.017092 -7.219187 1.283497 0.105325 0.191131 0.011114
7.713381 88.943536 8.615215 -55.739907 -8.229129 0.381677 7.119803 4.668038 0.606433 4.155580 2.580471 0.374354 5.198420 3.220810 0.497269 4.155581 2.580471 0.374355 8.393969 15.246911 -2.201431 9.760045 -9.371315 -4.401779 -12.300172 1.245360 -0.609448 1.575227 -4.926726 90.206595 4.406554 -6.984086 1.887070 5.444021 -18.861996 -5.474458 -15.972333 -0.447750 -0.650163 3.994410 -2.359260 -88.996574 0.040583 1.614870 -2.483068 -2.714392 -6.719922 6.037800 6.064351 5.214465 -7.601545 18.883530 14.502762 3.653029 -4.158456 -10.323487 8.283049 0.058974 -0.217512 -0.784091 9.990423 8.425404 3.203590 13.364335 5.614702 -1.040665 -2.007864 -7.146152 1.235472 0.093740 0.175575 0.003051
7.680107 88.958281 8.539924 -55.809768 -8.299482 0.286896 7.139767 4.664502 0.678043 4.146197 2.603354 0.377488 5.186757 3.249386 0.501382 4.146198 2.603354 0.377488 8.197524 15.233681 -2.232474 9.537883 -9.398217 -4.384299 -12.351488 1.294921 -0.635756 1.494084 -4.978010 90.315366 4.454308 -7.310573 1.892823 5.694596 -18.968850 -5.620706 -16.078803 -0.438014 -0.692948 3.930838 -2.364333 -88.853968 0.206387 1.699700 -2.324377 -2.622955 -6.652627 5.987582 6.172750 5.135969 -7.649912 18.767933 14.755011 3.775289 -4.285260 -10.589753 8.357857 0.135290 -0.070356 -0.582432 10.018708 8.490669 3.353576 13.375973 5.547640 -1.011788 -2.009134 -7.063325 1.178951 0.078852 0.170096 -0.004301
7.640119 88.975652 8.454207 -55.877005 -8.369617 0.205939 7.159674 4.660631 0.740627 4.138281 2.622900 0.380476 5.176920 3.273791 0.505285 4.138281 2.622900 0.380476 8.012939 15.239324 -2.264812 9.330322 -9.403381 -4.371203 -12.411011 1.341292 -0.669873 1.424410 -5.014163 90.427368 4.494593 -7.620698 1.893774 5.918266 -19.063853 -5.765119 -16.169839 -0.423832 -0.719654 3.872815 -2.376467 -88.738424 0.386735 1.787885 -2.140903 -2.515502 -6.587764 5.933197 6.233031 5.093347 -7.707202 18.621607 14.929651 3.826012 -4.407691 -10.876364 8.351391 0.193108 0.103909 -0.318480 10.044026 8.572372 3.480114 13.378997 5.441443 -0.982556 -1.941625 -6.954275 1.118299 0.067094 0.160436 -0.009713
7.595321 88.994803 8.361487 -55.942305 -8.434561 0.145867 7.179262 4.655037 0.786133 4.131673 2.638809 0.383158 5.168711 3.293652 0.508772 4.131673 2.638809 0.383158 7.838193 15.260761 -2.297198 9.134628 -9.390462 -4.360613 -12.474669 1.381002 -0.708212 1.357802 -5.032574 90.538809 4.531661 -7.891184 1.889927 6.108105 -19.154098 -5.903856 -16.247088 -0.408721 -0.730798 3.822577 -2.392552 -88.652387 0.579101 1.866314 -1.937401 -2.405158 -6.526929 5.882160 6.256307 5.075195 -7.777161 18.470088 15.034692 3.798795 -4.535396 -11.167369 8.292488 0.221961 0.285289 -0.022382 10.054557 8.667842 3.575315 13.371557 5.298261 -0.950491 -1.820855 -6.820799 1.052349 0.057754 0.146032 -0.013957
7.547733 89.014477 8.262333 -56.008899 -8.479204 0.099297 7.199672 4.636458 0.819237 4.125926 2.649467 0.385959 5.161568 3.306949 0.512354 4.125926 2.649467 0.385959 7.673981 15.294368 -2.328768 8.951365 -9.363476 -4.351808 -12.536693 1.413822 -0.748490 1.293256 -5.032122 90.644198 4.566428 -8.114761 1.884219 6.260051 -19.241290 -6.029641 -16.306895 -0.395056 -0.729416 3.782810 -2.408661 -88.597644 0.775697 1.925698 -1.719985 -2.298913 -6.469471 5.841414 6.254857 5.058578 -7.851820 18.321418 15.077361 3.691864 -4.644101 -11.453940 8.212353 0.199754 0.465344 0.268986 10.046198 8.761973 3.656580 13.352140 5.117407 -0.919542 -1.698105 -6.639559 0.979556 0.046575 0.105943 -0.019219
